<svg width="22" height="22" viewBox="0 0 22 22" fill="none" xmlns="http://www.w3.org/2000/svg">
<path d="M0.5 20H21.5V21.5H0.5V20ZM19.25 7.25005C19.4489 7.25005 19.6397 7.17103 19.7803 7.03038C19.921 6.88972 20 6.69896 20 6.50005V4.25005C19.9999 4.09591 19.9524 3.94554 19.8638 3.81939C19.7752 3.69325 19.65 3.59745 19.505 3.54505L11.255 0.545047C11.0902 0.485473 10.9098 0.485473 10.745 0.545047L2.495 3.54505C2.35005 3.59745 2.22476 3.69325 2.13619 3.81939C2.04762 3.94554 2.00007 4.09591 2 4.25005V6.50005C2 6.69896 2.07902 6.88972 2.21967 7.03038C2.36032 7.17103 2.55109 7.25005 2.75 7.25005H3.5V17H2V18.5H20V17H18.5V7.25005H19.25ZM3.5 4.77505L11 2.04505L18.5 4.77505V5.75005H3.5V4.77505ZM12.5 17H9.5V7.25005H12.5V17ZM5 7.25005H8V17H5V7.25005ZM17 17H14V7.25005H17V17Z" fill="black"/>
</svg>
